<svg width="40" height="40" viewBox="0 0 40 40" fill="none" xmlns="http://www.w3.org/2000/svg">
<rect width="40" height="40" rx="10" fill="#181818"/>
<path d="M8.43 23.138H13.064V25H6.022V15.76H8.43V23.138ZM17.5239 15.76C18.9705 15.76 20.0765 16.1613 20.8419 16.964C21.6165 17.7667 22.0039 18.9053 22.0039 20.38C22.0039 21.8547 21.6165 22.9933 20.8419 23.796C20.0765 24.5987 18.9705 25 17.5239 25H13.6039V15.76H17.5239ZM17.2859 23.18C18.0699 23.18 18.6392 22.9467 18.9939 22.48C19.3579 22.004 19.5399 21.304 19.5399 20.38C19.5399 19.456 19.3579 18.7607 18.9939 18.294C18.6392 17.818 18.0699 17.58 17.2859 17.58H16.0119V23.18H17.2859ZM24.3856 25L21.7256 15.76H24.2876L25.8556 23.054L27.5076 15.76H29.6916L31.3856 23.04L32.9256 15.76H35.4036L32.7296 25H30.1116L29.0196 20.52L28.5996 18.266H28.5716L28.1656 20.52L27.0876 25H24.3856Z" fill="white"/>
</svg>
